# xmcd
#
# Track frame offsets:
#	150
#	23390
#	42815
#	60707
#	78677
#	106887
#	133777
#	148347
#	165272
#	185842
#	208927
#	233860
#
# Disc length: 3339 seconds
#
# Revision: 2
# Processed by: cddbd v1.5.2PL0 Copyright (c) Steve Scherf et al.
# Submitted via: EZCDAudioConverter 7.1.0.1
#
DISCID=a70d090c
DTITLE=林海 and fRieNDS - 琵琶相
DYEAR=2003
DGENRE=
TTITLE0=踏古
TTITLE1=琵琶语
TTITLE2=凡人歌
TTITLE3=秋月夜
TTITLE4=对歌
TTITLE5=渡·红尘
TTITLE6=欢沁
TTITLE7=暮色
TTITLE8=反璞
TTITLE9=声声思
TTITLE10=探寻
TTITLE11=弄云
EXTD=
EXTT0=
EXTT1=
EXTT2=
EXTT3=
EXTT4=
EXTT5=
EXTT6=
EXTT7=
EXTT8=
EXTT9=
EXTT10=
EXTT11=
PLAYORDER=
